<?xml version="1.0" encoding="UTF-8" standalone="no"?>
<svg width="192px" height="55px" viewBox="0 0 192 55" version="1.1" xmlns="http://www.w3.org/2000/svg" xmlns:xlink="http://www.w3.org/1999/xlink" xmlns:sketch="http://www.bohemiancoding.com/sketch/ns">
    <!-- Generator: Sketch 3.5.2 (25235) - http://www.bohemiancoding.com/sketch -->
    <title>logo</title>
    <desc>Created with Sketch.</desc>
    <defs></defs>
    <g id="design" stroke="none" stroke-width="1" fill="none" fill-rule="evenodd" sketch:type="MSPage">
        <g id="logo" sketch:type="MSArtboardGroup">
            <g id="Group" sketch:type="MSLayerGroup" transform="translate(0.000000, 1.000000)">
                <text id="Clinical" sketch:type="MSTextLayer" font-family="Proxima Nova" font-size="26" font-weight="526" sketch:alignment="middle" fill="#5C6B7E">
                    <tspan x="0.763" y="35">Clinical</tspan>
                </text>
                <path d="M96.003,35 L96.003,21.558 L100.839,21.558 L100.839,17.658 L86.669,17.658 L86.669,21.558 L91.531,21.558 L91.531,35 L96.003,35 Z M105.871,35 L105.871,26.992 C106.391,26.29 107.769,25.848 108.809,25.848 C109.225,25.848 109.563,25.874 109.797,25.952 L109.797,22.104 C108.315,22.104 106.703,22.962 105.871,23.976 L105.871,22.442 L101.867,22.442 L101.867,35 L105.871,35 Z M115.621,35 L115.621,22.442 L111.617,22.442 L111.617,35 L115.621,35 Z M129.947,35 L129.947,27.148 C129.947,23.248 127.113,22.13 124.097,22.13 C122.173,22.13 120.015,22.702 118.403,24.08 L119.885,26.862 C120.899,26.004 122.147,25.51 123.395,25.51 C125.007,25.51 125.943,26.264 125.943,27.356 L125.943,28.604 C125.189,27.668 123.707,27.122 122.043,27.122 C120.119,27.122 117.727,28.136 117.727,31.178 C117.727,33.986 120.119,35.312 122.043,35.312 C123.655,35.312 125.163,34.688 125.943,33.752 L125.943,35 L129.947,35 Z M123.707,32.686 C122.667,32.686 121.705,32.218 121.705,31.23 C121.705,30.242 122.667,29.774 123.707,29.774 C124.591,29.774 125.527,30.06 125.943,30.658 L125.943,31.776 C125.527,32.374 124.591,32.686 123.707,32.686 L123.707,32.686 Z M136.863,35 L136.863,17.658 L132.859,17.658 L132.859,35 L136.863,35 Z M144.611,35.312 C148.199,35.312 150.305,33.596 150.305,31.204 C150.305,26.056 143.025,27.486 143.025,26.108 C143.025,25.614 143.649,25.25 144.585,25.25 C146.093,25.25 147.523,25.9 148.277,26.628 L149.811,23.794 C148.459,22.806 146.691,22.13 144.559,22.13 C141.101,22.13 139.177,24.054 139.177,26.264 C139.177,31.36 146.483,29.748 146.483,31.308 C146.483,31.854 145.989,32.192 144.793,32.192 C143.311,32.192 141.309,31.334 140.373,30.502 L138.709,33.362 C140.035,34.558 142.349,35.312 144.611,35.312 L144.611,35.312 Z" id="Trials" fill="#001837" sketch:type="MSShapeGroup"></path>
                <text id="Type-something-Copy-2" sketch:type="MSTextLayer" font-family="Proxima Nova" font-size="20" font-weight="526" sketch:alignment="middle" fill="#5C6B7E">
                    <tspan x="153.3" y="35">GPS</tspan>
                </text>
                <g id="Imported-Layers-Copy-+-Imported-Layers-Copy" transform="translate(108.000000, 0.000000)" fill="#C31A0C" sketch:type="MSShapeGroup">
                    <path d="M6.2558461,0.00099716536 C2.86252479,-0.059852929 0.062901288,2.67187167 0.00271004826,6.10240813 C-0.028503921,7.88196332 0.188497383,10.1193286 1.7853485,13.0802098 C4.65658614,18.4043411 5.91401366,19.4820533 5.91401366,19.4820533 C5.91401366,19.4820533 7.20835056,18.4500919 10.2646509,13.2322908 C11.9644176,10.3305547 12.2597234,8.10240419 12.2909374,6.322849 C12.3511994,2.89223585 9.64916741,0.0618472597 6.2558461,0.00099716536 L6.2558461,0.00099716536 L6.2558461,0.00099716536 Z M7.40113871,9.71917645 C5.47691087,10.4298494 3.34818622,9.4260567 2.64651212,7.47715098 C1.94484003,5.52830385 2.93592228,3.37227868 4.86015012,2.66160573 C6.78437796,1.95093278 8.91304273,2.95466893 9.61477469,4.90357261 C10.3164488,6.85247834 9.32536655,9.0085035 7.40113871,9.71917645 L7.40113871,9.71917645 L7.40113871,9.71917645 Z" id="Imported-Layers"></path>
                </g>
                <text id="Your-Guide-to-Local--Copy-2" sketch:type="MSTextLayer" font-family="Proxima Nova" font-size="13.8000002" font-weight="normal" sketch:alignment="middle" fill="#9AA9BC">
                    <tspan x="2.05969869" y="50">Your guide to local clinical trials</tspan>
                </text>
            </g>
        </g>
    </g>
</svg>